<svg width="147" height="54" viewBox="0 0 147 54" fill="none" xmlns="http://www.w3.org/2000/svg">
<path d="M11.7 14.728C14.364 14.728 16.692 15.256 18.684 16.312C20.676 17.368 22.212 18.856 23.292 20.776C24.396 22.672 24.948 24.868 24.948 27.364C24.948 29.836 24.396 32.032 23.292 33.952C22.212 35.872 20.664 37.36 18.648 38.416C16.656 39.472 14.34 40 11.7 40H2.232V14.728H11.7ZM11.304 34.672C13.632 34.672 15.444 34.036 16.74 32.764C18.036 31.492 18.684 29.692 18.684 27.364C18.684 25.036 18.036 23.224 16.74 21.928C15.444 20.632 13.632 19.984 11.304 19.984H8.388V34.672H11.304ZM27.1643 29.92C27.1643 27.856 27.5483 26.044 28.3163 24.484C29.1083 22.924 30.1763 21.724 31.5203 20.884C32.8643 20.044 34.3643 19.624 36.0203 19.624C37.4363 19.624 38.6723 19.912 39.7283 20.488C40.8083 21.064 41.6363 21.82 42.2123 22.756V19.912H48.3683V40H42.2123V37.156C41.6123 38.092 40.7723 38.848 39.6923 39.424C38.6363 40 37.4003 40.288 35.9843 40.288C34.3523 40.288 32.8643 39.868 31.5203 39.028C30.1763 38.164 29.1083 36.952 28.3163 35.392C27.5483 33.808 27.1643 31.984 27.1643 29.92ZM42.2123 29.956C42.2123 28.42 41.7803 27.208 40.9163 26.32C40.0763 25.432 39.0443 24.988 37.8203 24.988C36.5963 24.988 35.5523 25.432 34.6883 26.32C33.8483 27.184 33.4283 28.384 33.4283 29.92C33.4283 31.456 33.8483 32.68 34.6883 33.592C35.5523 34.48 36.5963 34.924 37.8203 34.924C39.0443 34.924 40.0763 34.48 40.9163 33.592C41.7803 32.704 42.2123 31.492 42.2123 29.956ZM73.3418 19.912L60.7418 49.54H54.1178L58.7258 39.316L50.5538 19.912H57.4298L62.0738 32.476L66.6818 19.912H73.3418ZM85.0359 14.728C87.6999 14.728 90.0279 15.256 92.0199 16.312C94.0119 17.368 95.5479 18.856 96.6279 20.776C97.7319 22.672 98.2839 24.868 98.2839 27.364C98.2839 29.836 97.7319 32.032 96.6279 33.952C95.5479 35.872 93.9999 37.36 91.9839 38.416C89.9919 39.472 87.6759 40 85.0359 40H75.5679V14.728H85.0359ZM84.6399 34.672C86.9679 34.672 88.7799 34.036 90.0759 32.764C91.3719 31.492 92.0199 29.692 92.0199 27.364C92.0199 25.036 91.3719 23.224 90.0759 21.928C88.7799 20.632 86.9679 19.984 84.6399 19.984H81.7239V34.672H84.6399ZM100.5 29.92C100.5 27.856 100.884 26.044 101.652 24.484C102.444 22.924 103.512 21.724 104.856 20.884C106.2 20.044 107.7 19.624 109.356 19.624C110.772 19.624 112.008 19.912 113.064 20.488C114.144 21.064 114.972 21.82 115.548 22.756V19.912H121.704V40H115.548V37.156C114.948 38.092 114.108 38.848 113.028 39.424C111.972 40 110.736 40.288 109.32 40.288C107.688 40.288 106.2 39.868 104.856 39.028C103.512 38.164 102.444 36.952 101.652 35.392C100.884 33.808 100.5 31.984 100.5 29.92ZM115.548 29.956C115.548 28.42 115.116 27.208 114.252 26.32C113.412 25.432 112.38 24.988 111.156 24.988C109.932 24.988 108.888 25.432 108.024 26.32C107.184 27.184 106.764 28.384 106.764 29.92C106.764 31.456 107.184 32.68 108.024 33.592C108.888 34.48 109.932 34.924 111.156 34.924C112.38 34.924 113.412 34.48 114.252 33.592C115.116 32.704 115.548 31.492 115.548 29.956ZM146.678 19.912L134.078 49.54H127.454L132.062 39.316L123.89 19.912H130.766L135.41 32.476L140.018 19.912H146.678Z" fill="#222222"/>
</svg>
